<svg id="visual" viewBox="0 0 900 450" width="900" height="450" xmlns="http://www.w3.org/2000/svg" xmlns:xlink="http://www.w3.org/1999/xlink" version="1.1"><rect x="0" y="0" width="900" height="450" fill="#fff"></rect><defs><linearGradient id="grad1_0" x1="50%" y1="0%" x2="100%" y2="100%"><stop offset="10%" stop-color="#0b488d" stop-opacity="1"></stop><stop offset="90%" stop-color="#0b488d" stop-opacity="1"></stop></linearGradient></defs><defs><linearGradient id="grad1_1" x1="50%" y1="0%" x2="100%" y2="100%"><stop offset="10%" stop-color="#0b488d" stop-opacity="1"></stop><stop offset="90%" stop-color="#4f69a3" stop-opacity="1"></stop></linearGradient></defs><defs><linearGradient id="grad1_2" x1="50%" y1="0%" x2="100%" y2="100%"><stop offset="10%" stop-color="#7d8cba" stop-opacity="1"></stop><stop offset="90%" stop-color="#4f69a3" stop-opacity="1"></stop></linearGradient></defs><defs><linearGradient id="grad1_3" x1="50%" y1="0%" x2="100%" y2="100%"><stop offset="10%" stop-color="#7d8cba" stop-opacity="1"></stop><stop offset="90%" stop-color="#a8b1d1" stop-opacity="1"></stop></linearGradient></defs><defs><linearGradient id="grad1_4" x1="50%" y1="0%" x2="100%" y2="100%"><stop offset="10%" stop-color="#d3d7e8" stop-opacity="1"></stop><stop offset="90%" stop-color="#a8b1d1" stop-opacity="1"></stop></linearGradient></defs><defs><linearGradient id="grad1_5" x1="50%" y1="0%" x2="100%" y2="100%"><stop offset="10%" stop-color="#d3d7e8" stop-opacity="1"></stop><stop offset="90%" stop-color="#ffffff" stop-opacity="1"></stop></linearGradient></defs><defs><linearGradient id="grad2_0" x1="0%" y1="0%" x2="50%" y2="100%"><stop offset="10%" stop-color="#0b488d" stop-opacity="1"></stop><stop offset="90%" stop-color="#0b488d" stop-opacity="1"></stop></linearGradient></defs><defs><linearGradient id="grad2_1" x1="0%" y1="0%" x2="50%" y2="100%"><stop offset="10%" stop-color="#4f69a3" stop-opacity="1"></stop><stop offset="90%" stop-color="#0b488d" stop-opacity="1"></stop></linearGradient></defs><defs><linearGradient id="grad2_2" x1="0%" y1="0%" x2="50%" y2="100%"><stop offset="10%" stop-color="#4f69a3" stop-opacity="1"></stop><stop offset="90%" stop-color="#7d8cba" stop-opacity="1"></stop></linearGradient></defs><defs><linearGradient id="grad2_3" x1="0%" y1="0%" x2="50%" y2="100%"><stop offset="10%" stop-color="#a8b1d1" stop-opacity="1"></stop><stop offset="90%" stop-color="#7d8cba" stop-opacity="1"></stop></linearGradient></defs><defs><linearGradient id="grad2_4" x1="0%" y1="0%" x2="50%" y2="100%"><stop offset="10%" stop-color="#a8b1d1" stop-opacity="1"></stop><stop offset="90%" stop-color="#d3d7e8" stop-opacity="1"></stop></linearGradient></defs><defs><linearGradient id="grad2_5" x1="0%" y1="0%" x2="50%" y2="100%"><stop offset="10%" stop-color="#ffffff" stop-opacity="1"></stop><stop offset="90%" stop-color="#d3d7e8" stop-opacity="1"></stop></linearGradient></defs><g transform="translate(900, 0)"><path d="M0 337.5C-20 312.7 -39.9 287.9 -65 284.7C-90 281.5 -120.1 299.9 -141 292.8C-161.9 285.7 -173.6 253.1 -180.8 226.7C-188 200.4 -190.6 180.3 -213.4 170.2C-236.3 160.1 -279.3 159.9 -301.8 145.4C-324.4 130.8 -326.5 101.7 -329 75.1C-331.6 48.5 -334.5 24.2 -337.5 0L0 0Z" fill="#e9ebf3"></path><path d="M0 281.3C-16.6 260.6 -33.3 239.9 -54.1 237.2C-75 234.6 -100.1 249.9 -117.5 244C-134.9 238.1 -144.7 210.9 -150.7 188.9C-156.7 167 -158.9 150.3 -177.9 141.8C-196.9 133.4 -232.7 133.3 -251.5 121.1C-270.3 109 -272.1 84.8 -274.2 62.6C-276.3 40.4 -278.8 20.2 -281.2 0L0 0Z" fill="#bec4dc"></path><path d="M0 225C-13.3 208.5 -26.6 191.9 -43.3 189.8C-60 187.7 -80.1 199.9 -94 195.2C-107.9 190.5 -115.8 168.7 -120.5 151.2C-125.3 133.6 -127.1 120.2 -142.3 113.5C-157.5 106.7 -186.2 106.6 -201.2 96.9C-216.3 87.2 -217.7 67.8 -219.4 50.1C-221.1 32.3 -223 16.2 -225 0L0 0Z" fill="#939ec5"></path><path d="M0 168.8C-10 156.3 -20 143.9 -32.5 142.3C-45 140.7 -60.1 150 -70.5 146.4C-81 142.9 -86.8 126.5 -90.4 113.4C-94 100.2 -95.3 90.2 -106.7 85.1C-118.1 80.1 -139.6 80 -150.9 72.7C-162.2 65.4 -163.2 50.9 -164.5 37.6C-165.8 24.2 -167.3 12.1 -168.7 0L0 0Z" fill="#677aaf"></path><path d="M0 112.5C-6.7 104.2 -13.3 96 -21.7 94.9C-30 93.8 -40 100 -47 97.6C-54 95.2 -57.9 84.4 -60.3 75.6C-62.7 66.8 -63.5 60.1 -71.1 56.7C-78.8 53.4 -93.1 53.3 -100.6 48.5C-108.1 43.6 -108.8 33.9 -109.7 25C-110.5 16.2 -111.5 8.1 -112.5 0L0 0Z" fill="#355898"></path><path d="M0 56.3C-3.3 52.1 -6.7 48 -10.8 47.4C-15 46.9 -20 50 -23.5 48.8C-27 47.6 -28.9 42.2 -30.1 37.8C-31.3 33.4 -31.8 30.1 -35.6 28.4C-39.4 26.7 -46.5 26.7 -50.3 24.2C-54.1 21.8 -54.4 17 -54.8 12.5C-55.3 8.1 -55.8 4 -56.2 0L0 0Z" fill="#0b488d"></path></g><g transform="translate(0, 450)"><path d="M0 -337.5C19.2 -300.3 38.4 -263.1 57 -249.6C75.6 -236.1 93.6 -246.2 124.1 -257.7C154.6 -269.1 197.6 -281.9 210.4 -263.9C223.3 -245.9 206.1 -197.1 217.3 -173.3C228.6 -149.6 268.3 -150.9 283.8 -136.7C299.3 -122.5 290.5 -92.8 295.4 -67.4C300.3 -42.1 318.9 -21 337.5 0L0 0Z" fill="#e9ebf3"></path><path d="M0 -281.2C16 -250.3 32 -219.3 47.5 -208C63 -196.7 78 -205.2 103.4 -214.7C128.8 -224.3 164.6 -234.9 175.4 -219.9C186.1 -204.9 171.7 -164.2 181.1 -144.4C190.5 -124.7 223.6 -125.7 236.5 -113.9C249.4 -102.1 242.1 -77.3 246.2 -56.2C250.3 -35.1 265.8 -17.5 281.3 0L0 0Z" fill="#bec4dc"></path><path d="M0 -225C12.8 -200.2 25.6 -175.4 38 -166.4C50.4 -157.4 62.4 -164.1 82.7 -171.8C103.1 -179.4 131.7 -187.9 140.3 -175.9C148.9 -163.9 137.4 -131.4 144.9 -115.6C152.4 -99.7 178.9 -100.6 189.2 -91.1C199.5 -81.6 193.7 -61.9 196.9 -44.9C200.2 -28 212.6 -14 225 0L0 0Z" fill="#939ec5"></path><path d="M0 -168.7C9.6 -150.2 19.2 -131.6 28.5 -124.8C37.8 -118 46.8 -123.1 62 -128.8C77.3 -134.6 98.8 -140.9 105.2 -131.9C111.7 -122.9 103 -98.5 108.7 -86.7C114.3 -74.8 134.2 -75.4 141.9 -68.3C149.6 -61.2 145.2 -46.4 147.7 -33.7C150.2 -21 159.5 -10.5 168.8 0L0 0Z" fill="#677aaf"></path><path d="M0 -112.5C6.4 -100.1 12.8 -87.7 19 -83.2C25.2 -78.7 31.2 -82.1 41.4 -85.9C51.5 -89.7 65.9 -94 70.1 -88C74.4 -82 68.7 -65.7 72.4 -57.8C76.2 -49.9 89.4 -50.3 94.6 -45.6C99.8 -40.8 96.8 -30.9 98.5 -22.5C100.1 -14 106.3 -7 112.5 0L0 0Z" fill="#355898"></path><path d="M0 -56.2C3.2 -50.1 6.4 -43.9 9.5 -41.6C12.6 -39.3 15.6 -41 20.7 -42.9C25.8 -44.9 32.9 -47 35.1 -44C37.2 -41 34.3 -32.8 36.2 -28.9C38.1 -24.9 44.7 -25.1 47.3 -22.8C49.9 -20.4 48.4 -15.5 49.2 -11.2C50.1 -7 53.2 -3.5 56.3 0L0 0Z" fill="#0b488d"></path></g></svg>