<svg id="visual" viewBox="0 0 900 600" width="900" height="600" xmlns="http://www.w3.org/2000/svg" xmlns:xlink="http://www.w3.org/1999/xlink" version="1.1"><rect x="0" y="0" width="900" height="600" fill="#fff"></rect><defs><linearGradient id="grad1_0" x1="33.3%" y1="0%" x2="100%" y2="100%"><stop offset="20%" stop-color="#ffffff" stop-opacity="1"></stop><stop offset="80%" stop-color="#ffffff" stop-opacity="1"></stop></linearGradient></defs><defs><linearGradient id="grad2_0" x1="0%" y1="0%" x2="66.7%" y2="100%"><stop offset="20%" stop-color="#ffffff" stop-opacity="1"></stop><stop offset="80%" stop-color="#ffffff" stop-opacity="1"></stop></linearGradient></defs><g transform="translate(900, 0)"><path d="M0 270.4C-15.6 255.4 -31.3 240.3 -46 231.5C-60.8 222.6 -74.6 219.9 -89.9 217.1C-105.2 214.4 -121.9 211.6 -136.7 204.5C-151.4 197.5 -164.2 186.1 -171.1 171.1C-178.1 156.2 -179.2 137.6 -185.4 123.9C-191.6 110.2 -202.9 101.2 -219 90.7C-235 80.2 -255.8 68.1 -265.2 52.8C-274.6 37.4 -272.5 18.7 -270.4 0L0 0Z" fill="#0b488d"></path></g><g transform="translate(0, 600)"><path d="M0 -270.4C16.4 -257.9 32.8 -245.3 46.6 -234.4C60.5 -223.5 71.8 -214.3 88 -212.5C104.2 -210.7 125.3 -216.4 142.8 -213.7C160.2 -211 174 -199.8 188.8 -188.8C203.6 -177.8 219.4 -166.8 224.8 -150.2C230.2 -133.6 225.2 -111.4 226.4 -93.8C227.5 -76.2 234.9 -63.2 243.2 -48.4C251.6 -33.5 261 -16.8 270.4 0L0 0Z" fill="#0b488d"></path></g></svg>