<svg id="visual" viewBox="0 0 900 600" width="900" height="600" xmlns="http://www.w3.org/2000/svg" xmlns:xlink="http://www.w3.org/1999/xlink" version="1.1"><rect width="900" height="600" fill="#fff"></rect><g><g transform="translate(673 32)"><path d="M102.6 -32.4C114.9 4.6 94.4 53.1 57.7 79.8C21.1 106.5 -31.6 111.3 -65.8 87.2C-99.9 63.2 -115.5 10.3 -101.4 -29C-87.4 -68.3 -43.7 -94.1 0.7 -94.3C45.1 -94.5 90.3 -69.3 102.6 -32.4Z" fill="none" stroke="#0b488d" stroke-width="12"></path></g><g transform="translate(672 435)"><path d="M80.9 -23.8C93.4 12 84 57.4 56.9 76.7C29.8 96 -15.1 89.3 -44.3 66.7C-73.5 44.1 -87.2 5.7 -77.2 -26.7C-67.2 -59.1 -33.6 -85.5 0.3 -85.6C34.3 -85.8 68.5 -59.6 80.9 -23.8Z" fill="none" stroke="#0b488d" stroke-width="12"></path></g><g transform="translate(15 132)"><path d="M66.6 -22.6C74.3 2 60.2 32.7 36 50.4C11.9 68.2 -22.3 73 -43.7 58C-65.1 42.9 -73.7 8.1 -64.3 -18.9C-54.9 -46 -27.4 -65.2 1 -65.5C29.5 -65.9 58.9 -47.3 66.6 -22.6Z" fill="none" stroke="#0b488d" stroke-width="12"></path></g><g transform="translate(295 308)"><path d="M82.7 -30.1C92.1 2.2 74.4 40.1 45.5 60.6C16.6 81.1 -23.5 84.3 -49.6 65.9C-75.6 47.5 -87.7 7.6 -77.1 -26.4C-66.5 -60.3 -33.2 -88.1 1.7 -88.7C36.6 -89.2 73.3 -62.5 82.7 -30.1Z" stroke="#0b488d" fill="none" stroke-width="12"></path></g></g></svg>