<svg id="visual" viewBox="0 0 1100 100" width="1100" height="100" xmlns="http://www.w3.org/2000/svg" xmlns:xlink="http://www.w3.org/1999/xlink" version="1.1"><rect x="0" y="0" width="1100" height="100" fill="#fff"></rect><defs><linearGradient id="grad1_0" x1="90.9%" y1="0%" x2="100%" y2="100%"><stop offset="-170%" stop-color="#0b488d" stop-opacity="1"></stop><stop offset="270%" stop-color="#0b488d" stop-opacity="1"></stop></linearGradient></defs><defs><linearGradient id="grad1_1" x1="90.9%" y1="0%" x2="100%" y2="100%"><stop offset="-170%" stop-color="#0b488d" stop-opacity="1"></stop><stop offset="270%" stop-color="#4f69a3" stop-opacity="1"></stop></linearGradient></defs><defs><linearGradient id="grad1_2" x1="90.9%" y1="0%" x2="100%" y2="100%"><stop offset="-170%" stop-color="#7d8cba" stop-opacity="1"></stop><stop offset="270%" stop-color="#4f69a3" stop-opacity="1"></stop></linearGradient></defs><defs><linearGradient id="grad1_3" x1="90.9%" y1="0%" x2="100%" y2="100%"><stop offset="-170%" stop-color="#7d8cba" stop-opacity="1"></stop><stop offset="270%" stop-color="#a8b1d1" stop-opacity="1"></stop></linearGradient></defs><defs><linearGradient id="grad1_4" x1="90.9%" y1="0%" x2="100%" y2="100%"><stop offset="-170%" stop-color="#d3d7e8" stop-opacity="1"></stop><stop offset="270%" stop-color="#a8b1d1" stop-opacity="1"></stop></linearGradient></defs><defs><linearGradient id="grad1_5" x1="90.9%" y1="0%" x2="100%" y2="100%"><stop offset="-170%" stop-color="#d3d7e8" stop-opacity="1"></stop><stop offset="270%" stop-color="#ffffff" stop-opacity="1"></stop></linearGradient></defs><defs><linearGradient id="grad2_0" x1="0%" y1="0%" x2="9.1%" y2="100%"><stop offset="-170%" stop-color="#0b488d" stop-opacity="1"></stop><stop offset="270%" stop-color="#0b488d" stop-opacity="1"></stop></linearGradient></defs><defs><linearGradient id="grad2_1" x1="0%" y1="0%" x2="9.1%" y2="100%"><stop offset="-170%" stop-color="#4f69a3" stop-opacity="1"></stop><stop offset="270%" stop-color="#0b488d" stop-opacity="1"></stop></linearGradient></defs><defs><linearGradient id="grad2_2" x1="0%" y1="0%" x2="9.1%" y2="100%"><stop offset="-170%" stop-color="#4f69a3" stop-opacity="1"></stop><stop offset="270%" stop-color="#7d8cba" stop-opacity="1"></stop></linearGradient></defs><defs><linearGradient id="grad2_3" x1="0%" y1="0%" x2="9.1%" y2="100%"><stop offset="-170%" stop-color="#a8b1d1" stop-opacity="1"></stop><stop offset="270%" stop-color="#7d8cba" stop-opacity="1"></stop></linearGradient></defs><defs><linearGradient id="grad2_4" x1="0%" y1="0%" x2="9.1%" y2="100%"><stop offset="-170%" stop-color="#a8b1d1" stop-opacity="1"></stop><stop offset="270%" stop-color="#d3d7e8" stop-opacity="1"></stop></linearGradient></defs><defs><linearGradient id="grad2_5" x1="0%" y1="0%" x2="9.1%" y2="100%"><stop offset="-170%" stop-color="#ffffff" stop-opacity="1"></stop><stop offset="270%" stop-color="#d3d7e8" stop-opacity="1"></stop></linearGradient></defs><g transform="translate(1100, 0)"><path d="M0 95C-6.2 89.6 -12.4 84.2 -18.5 80.9C-24.6 77.6 -30.5 76.4 -35.6 73.9C-40.6 71.3 -44.7 67.4 -52.4 65.7C-60 64 -71.2 64.6 -74.3 59.2C-77.3 53.9 -72.2 42.7 -73.9 35.6C-75.6 28.5 -84.1 25.5 -88.7 20.2C-93.4 15 -94.2 7.5 -95 0L0 0Z" fill="#e9ebf3"></path><path d="M0 79.2C-5.2 74.7 -10.3 70.2 -15.4 67.4C-20.5 64.7 -25.4 63.7 -29.6 61.6C-33.8 59.4 -37.3 56.1 -43.6 54.7C-50 53.3 -59.4 53.8 -61.9 49.4C-64.4 44.9 -60.2 35.6 -61.6 29.6C-63 23.7 -70.1 21.2 -73.9 16.9C-77.8 12.5 -78.5 6.3 -79.2 0L0 0Z" fill="#bec4dc"></path><path d="M0 63.3C-4.1 59.7 -8.3 56.1 -12.3 53.9C-16.4 51.8 -20.4 51 -23.7 49.3C-27.1 47.5 -29.8 44.9 -34.9 43.8C-40 42.7 -47.5 43 -49.5 39.5C-51.5 35.9 -48.1 28.5 -49.3 23.7C-50.4 19 -56 17 -59.1 13.5C-62.2 10 -62.8 5 -63.3 0L0 0Z" fill="#939ec5"></path><path d="M0 47.5C-3.1 44.8 -6.2 42.1 -9.2 40.5C-12.3 38.8 -15.3 38.2 -17.8 36.9C-20.3 35.7 -22.4 33.7 -26.2 32.8C-30 32 -35.6 32.3 -37.1 29.6C-38.7 27 -36.1 21.3 -36.9 17.8C-37.8 14.2 -42 12.7 -44.4 10.1C-46.7 7.5 -47.1 3.8 -47.5 0L0 0Z" fill="#677aaf"></path><path d="M0 31.7C-2.1 29.9 -4.1 28.1 -6.2 27C-8.2 25.9 -10.2 25.5 -11.9 24.6C-13.5 23.8 -14.9 22.5 -17.5 21.9C-20 21.3 -23.7 21.5 -24.8 19.7C-25.8 18 -24.1 14.2 -24.6 11.9C-25.2 9.5 -28 8.5 -29.6 6.7C-31.1 5 -31.4 2.5 -31.7 0L0 0Z" fill="#355898"></path><path d="M0 15.8C-1 14.9 -2.1 14 -3.1 13.5C-4.1 12.9 -5.1 12.7 -5.9 12.3C-6.8 11.9 -7.5 11.2 -8.7 10.9C-10 10.7 -11.9 10.8 -12.4 9.9C-12.9 9 -12 7.1 -12.3 5.9C-12.6 4.7 -14 4.2 -14.8 3.4C-15.6 2.5 -15.7 1.3 -15.8 0L0 0Z" fill="#0b488d"></path></g><g transform="translate(0, 100)"><path d="M0 -95C6.3 -91.8 12.5 -88.7 20 -87.7C27.5 -86.8 36.2 -88.1 39.5 -82C42.8 -75.9 40.6 -62.3 46.8 -58.6C52.9 -55 67.3 -61.3 74.3 -59.2C81.3 -57.1 81 -46.6 79.3 -38.2C77.6 -29.8 74.6 -23.6 77 -17.6C79.4 -11.6 87.2 -5.8 95 0L0 0Z" fill="#e9ebf3"></path><path d="M0 -79.2C5.2 -76.5 10.5 -73.9 16.7 -73.1C22.9 -72.3 30.2 -73.4 32.9 -68.3C35.6 -63.2 33.9 -51.9 39 -48.9C44.1 -45.8 56 -51.1 61.9 -49.4C67.7 -47.6 67.5 -38.8 66.1 -31.8C64.7 -24.8 62.2 -19.7 64.2 -14.6C66.2 -9.6 72.7 -4.8 79.2 0L0 0Z" fill="#bec4dc"></path><path d="M0 -63.3C4.2 -61.2 8.4 -59.1 13.4 -58.5C18.3 -57.9 24.1 -58.8 26.3 -54.7C28.5 -50.6 27.1 -41.5 31.2 -39.1C35.3 -36.7 44.8 -40.9 49.5 -39.5C54.2 -38.1 54 -31 52.9 -25.5C51.7 -19.9 49.7 -15.7 51.3 -11.7C52.9 -7.7 58.1 -3.9 63.3 0L0 0Z" fill="#939ec5"></path><path d="M0 -47.5C3.1 -45.9 6.3 -44.3 10 -43.9C13.8 -43.4 18.1 -44.1 19.7 -41C21.4 -37.9 20.3 -31.1 23.4 -29.3C26.4 -27.5 33.6 -30.7 37.1 -29.6C40.6 -28.6 40.5 -23.3 39.6 -19.1C38.8 -14.9 37.3 -11.8 38.5 -8.8C39.7 -5.8 43.6 -2.9 47.5 0L0 0Z" fill="#677aaf"></path><path d="M0 -31.7C2.1 -30.6 4.2 -29.6 6.7 -29.2C9.2 -28.9 12.1 -29.4 13.2 -27.3C14.3 -25.3 13.5 -20.8 15.6 -19.5C17.6 -18.3 22.4 -20.4 24.8 -19.7C27.1 -19 27 -15.5 26.4 -12.7C25.9 -9.9 24.9 -7.9 25.7 -5.9C26.5 -3.9 29.1 -1.9 31.7 0L0 0Z" fill="#355898"></path><path d="M0 -15.8C1 -15.3 2.1 -14.8 3.3 -14.6C4.6 -14.5 6 -14.7 6.6 -13.7C7.1 -12.6 6.8 -10.4 7.8 -9.8C8.8 -9.2 11.2 -10.2 12.4 -9.9C13.5 -9.5 13.5 -7.8 13.2 -6.4C12.9 -5 12.4 -3.9 12.8 -2.9C13.2 -1.9 14.5 -1 15.8 0L0 0Z" fill="#0b488d"></path></g></svg>