<svg id="visual" viewBox="0 0 900 450" width="900" height="450" xmlns="http://www.w3.org/2000/svg" xmlns:xlink="http://www.w3.org/1999/xlink" version="1.1"><rect x="0" y="0" width="900" height="450" fill="#fff"></rect><defs><linearGradient id="grad1_0" x1="50%" y1="100%" x2="100%" y2="0%"><stop offset="10%" stop-color="#0b488d" stop-opacity="1"></stop><stop offset="90%" stop-color="#0b488d" stop-opacity="1"></stop></linearGradient></defs><defs><linearGradient id="grad1_1" x1="50%" y1="100%" x2="100%" y2="0%"><stop offset="10%" stop-color="#0b488d" stop-opacity="1"></stop><stop offset="90%" stop-color="#4f69a3" stop-opacity="1"></stop></linearGradient></defs><defs><linearGradient id="grad1_2" x1="50%" y1="100%" x2="100%" y2="0%"><stop offset="10%" stop-color="#7d8cba" stop-opacity="1"></stop><stop offset="90%" stop-color="#4f69a3" stop-opacity="1"></stop></linearGradient></defs><defs><linearGradient id="grad1_3" x1="50%" y1="100%" x2="100%" y2="0%"><stop offset="10%" stop-color="#7d8cba" stop-opacity="1"></stop><stop offset="90%" stop-color="#a8b1d1" stop-opacity="1"></stop></linearGradient></defs><defs><linearGradient id="grad1_4" x1="50%" y1="100%" x2="100%" y2="0%"><stop offset="10%" stop-color="#d3d7e8" stop-opacity="1"></stop><stop offset="90%" stop-color="#a8b1d1" stop-opacity="1"></stop></linearGradient></defs><defs><linearGradient id="grad1_5" x1="50%" y1="100%" x2="100%" y2="0%"><stop offset="10%" stop-color="#d3d7e8" stop-opacity="1"></stop><stop offset="90%" stop-color="#ffffff" stop-opacity="1"></stop></linearGradient></defs><defs><linearGradient id="grad2_0" x1="0%" y1="100%" x2="50%" y2="0%"><stop offset="10%" stop-color="#0b488d" stop-opacity="1"></stop><stop offset="90%" stop-color="#0b488d" stop-opacity="1"></stop></linearGradient></defs><defs><linearGradient id="grad2_1" x1="0%" y1="100%" x2="50%" y2="0%"><stop offset="10%" stop-color="#4f69a3" stop-opacity="1"></stop><stop offset="90%" stop-color="#0b488d" stop-opacity="1"></stop></linearGradient></defs><defs><linearGradient id="grad2_2" x1="0%" y1="100%" x2="50%" y2="0%"><stop offset="10%" stop-color="#4f69a3" stop-opacity="1"></stop><stop offset="90%" stop-color="#7d8cba" stop-opacity="1"></stop></linearGradient></defs><defs><linearGradient id="grad2_3" x1="0%" y1="100%" x2="50%" y2="0%"><stop offset="10%" stop-color="#a8b1d1" stop-opacity="1"></stop><stop offset="90%" stop-color="#7d8cba" stop-opacity="1"></stop></linearGradient></defs><defs><linearGradient id="grad2_4" x1="0%" y1="100%" x2="50%" y2="0%"><stop offset="10%" stop-color="#a8b1d1" stop-opacity="1"></stop><stop offset="90%" stop-color="#d3d7e8" stop-opacity="1"></stop></linearGradient></defs><defs><linearGradient id="grad2_5" x1="0%" y1="100%" x2="50%" y2="0%"><stop offset="10%" stop-color="#ffffff" stop-opacity="1"></stop><stop offset="90%" stop-color="#d3d7e8" stop-opacity="1"></stop></linearGradient></defs><g transform="translate(900, 450)"><path d="M-337.5 0C-312.7 -20 -287.9 -39.9 -284.7 -65C-281.5 -90 -299.9 -120.1 -292.8 -141C-285.7 -161.9 -253.1 -173.6 -226.7 -180.8C-200.4 -188 -180.3 -190.6 -170.2 -213.4C-160.1 -236.3 -159.9 -279.3 -145.4 -301.8C-130.8 -324.4 -101.7 -326.5 -75.1 -329C-48.5 -331.6 -24.2 -334.5 0 -337.5L0 0Z" fill="#e9ebf3"></path><path d="M-281.2 0C-260.6 -16.6 -239.9 -33.3 -237.2 -54.1C-234.6 -75 -249.9 -100.1 -244 -117.5C-238.1 -134.9 -210.9 -144.7 -188.9 -150.7C-167 -156.7 -150.3 -158.9 -141.8 -177.9C-133.4 -196.9 -133.3 -232.7 -121.1 -251.5C-109 -270.3 -84.8 -272.1 -62.6 -274.2C-40.4 -276.3 -20.2 -278.8 0 -281.2L0 0Z" fill="#bec4dc"></path><path d="M-225 0C-208.5 -13.3 -191.9 -26.6 -189.8 -43.3C-187.7 -60 -199.9 -80.1 -195.2 -94C-190.5 -107.9 -168.7 -115.8 -151.2 -120.5C-133.6 -125.3 -120.2 -127.1 -113.5 -142.3C-106.7 -157.5 -106.6 -186.2 -96.9 -201.2C-87.2 -216.3 -67.8 -217.7 -50.1 -219.4C-32.3 -221.1 -16.2 -223 0 -225L0 0Z" fill="#939ec5"></path><path d="M-168.7 0C-156.3 -10 -143.9 -20 -142.3 -32.5C-140.7 -45 -150 -60.1 -146.4 -70.5C-142.9 -81 -126.5 -86.8 -113.4 -90.4C-100.2 -94 -90.2 -95.3 -85.1 -106.7C-80.1 -118.1 -80 -139.6 -72.7 -150.9C-65.4 -162.2 -50.9 -163.2 -37.6 -164.5C-24.2 -165.8 -12.1 -167.3 0 -168.7L0 0Z" fill="#677aaf"></path><path d="M-112.5 0C-104.2 -6.7 -96 -13.3 -94.9 -21.7C-93.8 -30 -100 -40 -97.6 -47C-95.2 -54 -84.4 -57.9 -75.6 -60.3C-66.8 -62.7 -60.1 -63.5 -56.7 -71.1C-53.4 -78.8 -53.3 -93.1 -48.5 -100.6C-43.6 -108.1 -33.9 -108.8 -25 -109.7C-16.2 -110.5 -8.1 -111.5 0 -112.5L0 0Z" fill="#355898"></path><path d="M-56.2 0C-52.1 -3.3 -48 -6.7 -47.4 -10.8C-46.9 -15 -50 -20 -48.8 -23.5C-47.6 -27 -42.2 -28.9 -37.8 -30.1C-33.4 -31.3 -30.1 -31.8 -28.4 -35.6C-26.7 -39.4 -26.7 -46.5 -24.2 -50.3C-21.8 -54.1 -17 -54.4 -12.5 -54.8C-8.1 -55.3 -4 -55.8 0 -56.2L0 0Z" fill="#0b488d"></path></g><g transform="translate(0, 0)"><path d="M337.5 0C300.3 19.2 263.1 38.4 249.6 57C236.1 75.6 246.2 93.6 257.7 124.1C269.1 154.6 281.9 197.6 263.9 210.4C245.9 223.3 197.1 206.1 173.3 217.3C149.6 228.6 150.9 268.3 136.7 283.8C122.5 299.3 92.8 290.5 67.4 295.4C42.1 300.3 21 318.9 0 337.5L0 0Z" fill="#e9ebf3"></path><path d="M281.3 0C250.3 16 219.3 32 208 47.5C196.7 63 205.2 78 214.7 103.4C224.3 128.8 234.9 164.6 219.9 175.4C204.9 186.1 164.2 171.7 144.4 181.1C124.7 190.5 125.7 223.6 113.9 236.5C102.1 249.4 77.3 242.1 56.2 246.2C35.1 250.3 17.5 265.8 0 281.3L0 0Z" fill="#bec4dc"></path><path d="M225 0C200.2 12.8 175.4 25.6 166.4 38C157.4 50.4 164.1 62.4 171.8 82.7C179.4 103.1 187.9 131.7 175.9 140.3C163.9 148.9 131.4 137.4 115.6 144.9C99.7 152.4 100.6 178.9 91.1 189.2C81.6 199.5 61.9 193.7 44.9 196.9C28 200.2 14 212.6 0 225L0 0Z" fill="#939ec5"></path><path d="M168.8 0C150.2 9.6 131.6 19.2 124.8 28.5C118 37.8 123.1 46.8 128.8 62C134.6 77.3 140.9 98.8 131.9 105.2C122.9 111.7 98.5 103 86.7 108.7C74.8 114.3 75.4 134.2 68.3 141.9C61.2 149.6 46.4 145.2 33.7 147.7C21 150.2 10.5 159.5 0 168.8L0 0Z" fill="#677aaf"></path><path d="M112.5 0C100.1 6.4 87.7 12.8 83.2 19C78.7 25.2 82.1 31.2 85.9 41.4C89.7 51.5 94 65.9 88 70.1C82 74.4 65.7 68.7 57.8 72.4C49.9 76.2 50.3 89.4 45.6 94.6C40.8 99.8 30.9 96.8 22.5 98.5C14 100.1 7 106.3 0 112.5L0 0Z" fill="#355898"></path><path d="M56.3 0C50.1 3.2 43.9 6.4 41.6 9.5C39.3 12.6 41 15.6 42.9 20.7C44.9 25.8 47 32.9 44 35.1C41 37.2 32.8 34.3 28.9 36.2C24.9 38.1 25.1 44.7 22.8 47.3C20.4 49.9 15.5 48.4 11.2 49.2C7 50.1 3.5 53.2 0 56.3L0 0Z" fill="#0b488d"></path></g></svg>