<?xml version="1.0" encoding="utf-8"?>
<!-- Generator: Adobe Illustrator 27.5.0, SVG Export Plug-In . SVG Version: 6.00 Build 0)  -->
<svg version="1.1" xmlns="http://www.w3.org/2000/svg" xmlns:xlink="http://www.w3.org/1999/xlink" x="0px" y="0px"
	 viewBox="0 0 500 500" style="enable-background:new 0 0 500 500;" xml:space="preserve">
<g id="Background_Complete">
	<g>
		<rect y="382.398" style="fill:#EBEBEB;" width="500" height="0.25"/>
		<rect x="52.459" y="391.922" style="fill:#EBEBEB;" width="21.208" height="0.25"/>
		<rect x="171.14" y="389.208" style="fill:#EBEBEB;" width="84.971" height="0.25"/>
		<rect x="67.667" y="401.208" style="fill:#EBEBEB;" width="38.108" height="0.25"/>
		<rect x="406.708" y="399.528" style="fill:#EBEBEB;" width="43.193" height="0.25"/>
		<rect x="391.471" y="399.528" style="fill:#EBEBEB;" width="11.973" height="0.25"/>
		<rect x="347.889" y="395.306" style="fill:#EBEBEB;" width="23" height="0.25"/>
		<rect x="287.889" y="395.306" style="fill:#EBEBEB;" width="48.444" height="0.25"/>
		<path style="fill:#EBEBEB;" d="M237.014,337.8H43.915c-3.147,0-5.708-2.561-5.708-5.708V60.66c0-3.147,2.561-5.708,5.708-5.708
			h193.099c3.146,0,5.707,2.561,5.707,5.708v271.432C242.721,335.239,240.16,337.8,237.014,337.8z M43.915,55.203
			c-3.01,0-5.458,2.448-5.458,5.458v271.432c0,3.01,2.448,5.458,5.458,5.458h193.099c3.009,0,5.457-2.448,5.457-5.458V60.66
			c0-3.009-2.448-5.458-5.457-5.458H43.915z"/>
		<path style="fill:#EBEBEB;" d="M453.31,337.8H260.212c-3.147,0-5.707-2.561-5.707-5.708V60.66c0-3.147,2.561-5.708,5.707-5.708
			H453.31c3.148,0,5.708,2.561,5.708,5.708v271.432C459.019,335.239,456.458,337.8,453.31,337.8z M260.212,55.203
			c-3.009,0-5.457,2.448-5.457,5.458v271.432c0,3.01,2.448,5.458,5.457,5.458H453.31c3.01,0,5.458-2.448,5.458-5.458V60.66
			c0-3.009-2.448-5.458-5.458-5.458H260.212z"/>
	</g>
	<g>
		<g style="opacity:0.6;">
			<g>
				<path style="fill:#EBEBEB;" d="M352.315,215.528l7.403-7.403c15.668,15.668,15.668,41.085,0,56.752
					c-10.501,10.501-25.387,13.965-38.768,10.383l2.712-10.115c9.887,2.662,20.884,0.099,28.653-7.671
					C363.895,245.893,363.895,227.108,352.315,215.528z"/>
				<path style="fill:#F5F5F5;" d="M302.964,208.125c7.522-7.522,17.746-11.749,28.376-11.748c10.63,0,20.854,4.226,28.376,11.748
					l-7.403,7.403c-11.58-11.58-30.366-11.58-41.945,0L302.964,208.125z"/>
				<path style="fill:#E0E0E0;" d="M302.964,208.125l7.403,7.403c-11.59,11.59-11.58,30.366,0,41.945
					c3.82,3.82,8.423,6.384,13.292,7.671l-2.712,10.115c-21.26-5.701-34.057-27.881-28.366-49.151
					C294.402,219.318,297.986,213.103,302.964,208.125z"/>
			</g>
			<g>
				<path style="fill:#EBEBEB;" d="M385.255,178.451v15.722c-33.273,0-60.261-26.988-60.261-60.262
					c0-22.301,12.128-41.786,30.141-52.19l7.861,13.62c-13.326,7.672-22.28,22.07-22.28,38.57
					C340.716,158.504,360.663,178.451,385.255,178.451z"/>
				<path style="fill:#F5F5F5;" d="M445.519,133.91c0,15.974-6.368,31.318-17.656,42.606
					c-11.288,11.287-26.631,17.656-42.606,17.656v-15.722c24.592,0,44.539-19.947,44.539-44.539H445.519z"/>
				<path style="fill:#E0E0E0;" d="M445.519,133.91h-15.722c0-24.613-19.947-44.539-44.539-44.539
					c-8.113,0-15.722,2.165-22.259,5.969l-7.861-13.62c28.628-16.521,65.769-6.558,82.311,22.07
					C442.724,112.933,445.519,123.338,445.519,133.91z"/>
			</g>
		</g>
		<g style="opacity:0.5;">
			<g>
				
					<rect x="280.937" y="325.947" transform="matrix(-1 -1.224647e-16 1.224647e-16 -1 588.5899 708.3431)" style="fill:#F5F5F5;" width="26.716" height="56.45"/>
				
					<rect x="248.766" y="342.975" transform="matrix(-1 -1.224647e-16 1.224647e-16 -1 524.2481 725.3714)" style="fill:#E6E6E6;" width="26.716" height="39.421"/>
				
					<rect x="216.595" y="357.487" transform="matrix(-1 -1.224647e-16 1.224647e-16 -1 459.9065 739.8835)" style="fill:#F0F0F0;" width="26.716" height="24.909"/>
			</g>
			<g>
				
					<rect x="381.176" y="342.975" transform="matrix(-1 -1.224647e-16 1.224647e-16 -1 789.0673 725.3714)" style="fill:#F5F5F5;" width="26.716" height="39.421"/>
				
					<rect x="349.005" y="351.693" transform="matrix(-1 -1.224647e-16 1.224647e-16 -1 724.7257 734.0889)" style="fill:#E6E6E6;" width="26.716" height="30.704"/>
				
					<rect x="316.834" y="316.262" transform="matrix(-1 -1.224647e-16 1.224647e-16 -1 660.3841 698.6582)" style="fill:#F0F0F0;" width="26.716" height="66.135"/>
			</g>
			<g>
				
					<rect x="180.698" y="320.695" transform="matrix(-1 -1.224647e-16 1.224647e-16 -1 388.1123 703.0914)" style="fill:#F5F5F5;" width="26.716" height="61.701"/>
				
					<rect x="148.527" y="342.975" transform="matrix(-1 -1.224647e-16 1.224647e-16 -1 323.7706 725.3714)" style="fill:#E6E6E6;" width="26.716" height="39.421"/>
				
					<rect x="116.356" y="330.52" transform="matrix(-1 -1.224647e-16 1.224647e-16 -1 259.4289 712.9168)" style="fill:#F0F0F0;" width="26.716" height="51.876"/>
			</g>
		</g>
		<g style="opacity:0.6;">
			<g>
				<path style="fill:#F0F0F0;" d="M56.111,79.463c0-3.748,3.066-6.814,6.814-6.814h212.258c3.748,0,6.814,3.066,6.814,6.814v21.934
					H56.111V79.463z"/>
				<path style="fill:#FFFFFF;" d="M111.204,92.675c-3.117,0-5.652-2.535-5.652-5.652s2.536-5.652,5.652-5.652
					s5.652,2.536,5.652,5.652S114.321,92.675,111.204,92.675z M111.204,82.371c-2.565,0-4.652,2.087-4.652,4.652
					s2.087,4.652,4.652,4.652s4.652-2.087,4.652-4.652S113.77,82.371,111.204,82.371z"/>
				<path style="fill:#FFFFFF;" d="M92.948,92.675c-3.117,0-5.652-2.535-5.652-5.652s2.536-5.652,5.652-5.652
					c3.116,0,5.652,2.536,5.652,5.652S96.064,92.675,92.948,92.675z M92.948,82.371c-2.565,0-4.652,2.087-4.652,4.652
					s2.087,4.652,4.652,4.652c2.565,0,4.652-2.087,4.652-4.652S95.513,82.371,92.948,82.371z"/>
				<path style="fill:#FFFFFF;" d="M74.692,92.675c-3.116,0-5.652-2.535-5.652-5.652s2.536-5.652,5.652-5.652
					c3.117,0,5.652,2.536,5.652,5.652S77.809,92.675,74.692,92.675z M74.692,82.371c-2.565,0-4.652,2.087-4.652,4.652
					s2.087,4.652,4.652,4.652c2.565,0,4.652-2.087,4.652-4.652S77.257,82.371,74.692,82.371z"/>
				<path style="fill:#E0E0E0;" d="M275.182,249.121H62.925c-3.748,0-6.814-3.066-6.814-6.814v-140.91h225.885v140.91
					C281.996,246.055,278.93,249.121,275.182,249.121z"/>
			</g>
			<g>
				<path style="fill:#F5F5F5;" d="M90.576,132.296c0-3.747,3.066-6.814,6.814-6.814h212.258c3.748,0,6.814,3.066,6.814,6.814
					v21.934H90.576V132.296z"/>
				<path style="fill:#E6E6E6;" d="M145.669,145.508c-3.117,0-5.652-2.536-5.652-5.652s2.536-5.652,5.652-5.652
					s5.652,2.536,5.652,5.652S148.785,145.508,145.669,145.508z M145.669,135.203c-2.566,0-4.652,2.087-4.652,4.652
					c0,2.565,2.087,4.652,4.652,4.652c2.565,0,4.652-2.087,4.652-4.652C150.321,137.29,148.234,135.203,145.669,135.203z"/>
				<path style="fill:#E6E6E6;" d="M127.413,145.508c-3.117,0-5.652-2.536-5.652-5.652s2.536-5.652,5.652-5.652
					s5.652,2.536,5.652,5.652S130.529,145.508,127.413,145.508z M127.413,135.203c-2.565,0-4.652,2.087-4.652,4.652
					c0,2.565,2.087,4.652,4.652,4.652s4.652-2.087,4.652-4.652C132.065,137.29,129.978,135.203,127.413,135.203z"/>
				<path style="fill:#E6E6E6;" d="M109.157,145.508c-3.117,0-5.652-2.536-5.652-5.652s2.536-5.652,5.652-5.652
					c3.116,0,5.652,2.536,5.652,5.652S112.273,145.508,109.157,145.508z M109.157,135.203c-2.565,0-4.652,2.087-4.652,4.652
					c0,2.565,2.087,4.652,4.652,4.652c2.565,0,4.652-2.087,4.652-4.652C113.809,137.29,111.722,135.203,109.157,135.203z"/>
				<path style="fill:#E6E6E6;" d="M309.647,301.953H97.389c-3.747,0-6.814-3.066-6.814-6.814v-140.91h225.885v140.91
					C316.461,298.887,313.395,301.953,309.647,301.953z"/>
			</g>
		</g>
	</g>
</g>
<g id="Background_Simple" style="display:none;">
	<g style="display:inline;">
		<path style="fill:#407BFF;" d="M284.546,141.742c-66.06,23.434-188.563-46.906-221.093,40.592
			C24.722,286.509,169.996,317.086,241.26,322.85c100.536,8.131,193.766-31.727,192.152-146.807
			c-0.602-42.887-30.415-80.057-76.034-87.623C307.578,80.16,322.397,128.315,284.546,141.742z"/>
		<path style="opacity:0.9;fill:#FFFFFF;" d="M284.546,141.742c-66.06,23.434-188.563-46.906-221.093,40.592
			C24.722,286.509,169.996,317.086,241.26,322.85c100.536,8.131,193.766-31.727,192.152-146.807
			c-0.602-42.887-30.415-80.057-76.034-87.623C307.578,80.16,322.397,128.315,284.546,141.742z"/>
	</g>
</g>
<g id="Shadow_1_">
	<ellipse id="_x3C_Path_x3E__104_" style="fill:#F5F5F5;" cx="250" cy="416.238" rx="193.889" ry="11.323"/>
</g>
<g id="Smartphone">
	<g>
		<g>
			<g>
				<path style="fill:#407BFF;" d="M266.519,163.364c1.427,0,2.537-1.168,2.466-2.594l-0.731-14.792
					c-0.07-1.427-1.296-2.594-2.723-2.594h-1.96l-1.816-36.754c-0.397-8.038-7.299-14.615-15.337-14.615H131.331
					c-8.038,0-14.29,6.577-13.893,14.615l1.824,36.924c-1.042,0.38-1.76,1.388-1.702,2.575l1.751,35.435
					c0.059,1.187,0.877,2.194,1.956,2.574l7.725,156.346c0.397,8.039,7.299,14.615,15.337,14.615h115.088
					c8.038,0,14.29-6.577,13.893-14.615l-7.446-150.703h1.96c1.427,0,2.536-1.167,2.466-2.594l-0.731-14.792
					c-0.07-1.427-1.296-2.594-2.722-2.594h-1.96l-0.318-6.437H266.519z"/>
				<path style="fill:#407BFF;" d="M146.766,355.099h115.088c8.038,0,14.29-6.577,13.893-14.615L264.193,106.63
					c-0.397-8.038-7.299-14.615-15.338-14.615H133.768c-8.039,0-14.291,6.577-13.893,14.615l11.554,233.854
					C131.825,348.522,138.727,355.099,146.766,355.099z"/>
				<path style="opacity:0.4;fill:#FAFAFA;" d="M146.766,355.099h115.088c8.038,0,14.29-6.577,13.893-14.615L264.193,106.63
					c-0.397-8.038-7.299-14.615-15.338-14.615H133.768c-8.039,0-14.291,6.577-13.893,14.615l11.554,233.854
					C131.825,348.522,138.727,355.099,146.766,355.099z"/>
				<path style="fill:#FFFFFF;" d="M137.321,334.713h131.963c1.258,0,2.227-1.02,2.165-2.278l-10.734-217.261
					c-0.062-1.258-1.132-2.278-2.39-2.278H126.362c-1.258,0-2.227,1.02-2.165,2.278l10.734,217.261
					C134.993,333.693,136.063,334.713,137.321,334.713z"/>
				<path style="opacity:0.7;fill:#407BFF;" d="M205.522,98.772H177.77c-0.991,0-1.762,0.811-1.713,1.802l0,0
					c0.049,0.991,0.9,1.802,1.891,1.802H205.7c0.991,0,1.762-0.811,1.713-1.802l0,0C207.364,99.583,206.513,98.772,205.522,98.772z"
					/>
			</g>
		</g>
		<g>
			<polygon style="opacity:0.6;fill:#407BFF;" points="307.02,289.489 191.638,289.489 183.369,122.13 298.751,122.13 			"/>
			<g>
				<g>
					<path style="fill:#FFFFFF;" d="M293.4,243.73c-0.05,0-0.11-0.01-0.16-0.03c-0.05-0.02-0.1-0.05-0.13-0.09
						c-0.04-0.04-0.07-0.08-0.09-0.13c-0.02-0.05-0.04-0.11-0.04-0.16c0-0.11,0.05-0.22,0.13-0.3c0.15-0.15,0.43-0.15,0.58,0
						c0.08,0.08,0.13,0.19,0.13,0.3c0,0.05-0.02,0.11-0.04,0.16c-0.02,0.05-0.05,0.09-0.09,0.13c-0.03,0.04-0.08,0.07-0.13,0.09
						C293.51,243.72,293.46,243.73,293.4,243.73z"/>
					<path style="fill:#FFFFFF;" d="M294.55,275c-0.01-0.22,0.16-0.42,0.39-0.43l0,0c0.23-0.01,0.43,0.16,0.44,0.39l0,0
						c0.01,0.23-0.17,0.43-0.4,0.44l0,0c0,0-0.01,0-0.02,0l0,0C294.75,275.4,294.56,275.23,294.55,275z M294.39,271.84
						c-0.01-0.23,0.171-0.43,0.4-0.44l0,0c0.23-0.01,0.42,0.17,0.43,0.4l0,0c0.01,0.23-0.16,0.42-0.39,0.43l0,0
						c-0.01,0-0.02,0-0.02,0l0,0C294.59,272.23,294.4,272.06,294.39,271.84z M294.24,268.67c-0.01-0.23,0.16-0.42,0.39-0.43l0,0
						c0.23-0.02,0.42,0.16,0.43,0.39l0,0c0.02,0.23-0.16,0.42-0.39,0.44l0,0c0,0-0.01,0-0.02,0l0,0
						C294.43,269.07,294.25,268.89,294.24,268.67z M294.08,265.5c-0.01-0.22,0.17-0.42,0.39-0.43l0,0c0.23-0.01,0.43,0.16,0.44,0.39
						l0,0c0.01,0.23-0.17,0.43-0.39,0.44l0,0c-0.01,0-0.02,0-0.02,0l0,0C294.28,265.9,294.09,265.73,294.08,265.5z M293.92,262.34
						c-0.01-0.23,0.17-0.43,0.4-0.44l0,0c0.23-0.01,0.42,0.17,0.43,0.4l0,0c0.01,0.23-0.16,0.42-0.39,0.43l0,0
						c-0.01,0-0.02,0-0.02,0l0,0C294.12,262.73,293.94,262.56,293.92,262.34z M293.77,259.17c-0.01-0.23,0.16-0.42,0.39-0.43l0,0
						c0.23-0.02,0.42,0.16,0.44,0.39l0,0c0.01,0.23-0.17,0.42-0.4,0.44l0,0c0,0-0.01,0-0.02,0l0,0
						C293.96,259.57,293.78,259.39,293.77,259.17z M293.61,256c-0.01-0.22,0.17-0.42,0.4-0.43l0,0c0.22-0.01,0.42,0.16,0.43,0.39
						l0,0c0.01,0.23-0.16,0.43-0.39,0.44l0,0c-0.01,0-0.02,0-0.02,0l0,0C293.81,256.4,293.62,256.23,293.61,256z M293.46,252.84
						c-0.02-0.23,0.16-0.43,0.39-0.44l0,0c0.23-0.01,0.42,0.17,0.43,0.4l0,0c0.01,0.23-0.16,0.42-0.39,0.43l0,0
						c-0.01,0-0.02,0-0.02,0l0,0C293.65,253.23,293.47,253.06,293.46,252.84z M293.3,249.67c-0.01-0.23,0.16-0.42,0.39-0.43l0,0
						c0.23-0.01,0.43,0.16,0.44,0.39l0,0c0.01,0.23-0.17,0.42-0.4,0.44l0,0c0,0-0.01,0-0.02,0l0,0
						C293.49,250.07,293.31,249.89,293.3,249.67z M293.14,246.51c-0.01-0.23,0.171-0.43,0.4-0.44l0,0c0.22-0.01,0.42,0.16,0.43,0.39
						l0,0c0.01,0.23-0.16,0.43-0.39,0.44l0,0c-0.01,0-0.02,0-0.02,0l0,0C293.34,246.9,293.15,246.73,293.14,246.51z"/>
					<path style="fill:#FFFFFF;" d="M295.12,278.57c-0.11,0-0.22-0.05-0.289-0.13c-0.08-0.07-0.12-0.18-0.12-0.29
						c0-0.05,0.01-0.11,0.03-0.16c0.02-0.05,0.05-0.1,0.09-0.13c0.039-0.04,0.08-0.07,0.13-0.09c0.1-0.04,0.22-0.04,0.32,0
						c0.05,0.02,0.1,0.05,0.14,0.09c0.03,0.03,0.06,0.08,0.08,0.13c0.03,0.05,0.04,0.11,0.04,0.16c0,0.11-0.05,0.22-0.12,0.29
						c-0.04,0.04-0.09,0.07-0.14,0.09C295.23,278.56,295.18,278.57,295.12,278.57z"/>
					<path style="fill:#FFFFFF;" d="M291.35,278.15c0-0.23,0.19-0.41,0.42-0.41l0,0c0.22,0,0.41,0.18,0.41,0.41l0,0
						c0,0.23-0.19,0.42-0.41,0.42l0,0C291.54,278.57,291.35,278.38,291.35,278.15z M287.99,278.15c0-0.23,0.19-0.41,0.42-0.41l0,0
						c0.23,0,0.41,0.18,0.41,0.41l0,0c0,0.23-0.18,0.42-0.41,0.42l0,0C288.18,278.57,287.99,278.38,287.99,278.15z M284.64,278.15
						c0-0.23,0.18-0.41,0.41-0.41l0,0c0.23,0,0.42,0.18,0.42,0.41l0,0c0,0.23-0.19,0.42-0.42,0.42l0,0
						C284.82,278.57,284.64,278.38,284.64,278.15z M281.28,278.15c0-0.23,0.19-0.41,0.42-0.41l0,0c0.23,0,0.41,0.18,0.41,0.41l0,0
						c0,0.23-0.18,0.42-0.41,0.42l0,0C281.47,278.57,281.28,278.38,281.28,278.15z M277.93,278.15c0-0.23,0.18-0.41,0.41-0.41l0,0
						c0.23,0,0.42,0.18,0.42,0.41l0,0c0,0.23-0.19,0.42-0.42,0.42l0,0C278.11,278.57,277.93,278.38,277.93,278.15z M274.57,278.15
						c0-0.23,0.19-0.41,0.42-0.41l0,0c0.23,0,0.41,0.18,0.41,0.41l0,0c0,0.23-0.18,0.42-0.41,0.42l0,0
						C274.76,278.57,274.57,278.38,274.57,278.15z M271.21,278.15c0-0.23,0.19-0.41,0.42-0.41l0,0c0.23,0,0.41,0.18,0.41,0.41l0,0
						c0,0.23-0.18,0.42-0.41,0.42l0,0C271.4,278.57,271.21,278.38,271.21,278.15z M267.86,278.15c0-0.23,0.19-0.41,0.41-0.41l0,0
						c0.23,0,0.42,0.18,0.42,0.41l0,0c0,0.23-0.19,0.42-0.42,0.42l0,0C268.05,278.57,267.86,278.38,267.86,278.15z M264.5,278.15
						c0-0.23,0.19-0.41,0.42-0.41l0,0c0.23,0,0.41,0.18,0.41,0.41l0,0c0,0.23-0.18,0.42-0.41,0.42l0,0
						C264.69,278.57,264.5,278.38,264.5,278.15z M261.15,278.15c0-0.23,0.18-0.41,0.41-0.41l0,0c0.23,0,0.42,0.18,0.42,0.41l0,0
						c0,0.23-0.19,0.42-0.42,0.42l0,0C261.33,278.57,261.15,278.38,261.15,278.15z M257.79,278.15c0-0.23,0.19-0.41,0.42-0.41l0,0
						c0.23,0,0.41,0.18,0.41,0.41l0,0c0,0.23-0.18,0.42-0.41,0.42l0,0C257.98,278.57,257.79,278.38,257.79,278.15z"/>
					<path style="fill:#FFFFFF;" d="M254.85,278.57c-0.11,0-0.21-0.05-0.289-0.13c-0.04-0.03-0.07-0.08-0.09-0.13
						c-0.02-0.05-0.03-0.11-0.03-0.16c0-0.11,0.04-0.22,0.12-0.29c0.11-0.12,0.289-0.16,0.45-0.09c0.05,0.02,0.1,0.05,0.13,0.09
						c0.08,0.07,0.13,0.18,0.13,0.29c0,0.05-0.02,0.11-0.04,0.16c-0.02,0.05-0.05,0.1-0.09,0.13c-0.03,0.04-0.079,0.07-0.13,0.09
						C254.96,278.55,254.91,278.57,254.85,278.57z"/>
				</g>
				<polygon style="opacity:0.5;fill:#407BFF;" points="300.955,166.734 185.573,166.734 183.369,122.13 298.751,122.13 				"/>
				<g>
					<g>
						<path style="fill:#263238;" d="M295.525,238.2l-0.275-2.919c7.088-0.319,13.958-3.187,19.115-8.613
							c3.031-3.189,5.152-6.927,6.379-10.909l2.801,0.986c-1.349,4.377-3.679,8.486-7.01,11.99
							C310.866,234.699,303.314,237.851,295.525,238.2z"/>
						<path style="opacity:0.5;fill:#407BFF;" d="M312.304,184.951c-3.73-3.555-8.088-6.012-12.651-7.372l0.712-2.798
							c5.016,1.498,9.804,4.197,13.904,8.103c9.608,9.156,12.797,22.427,9.276,33.862l-2.801-0.986
							C323.948,205.357,321.046,193.281,312.304,184.951z"/>
						<path style="fill:#407BFF;" d="M270.682,228.735c-6.533-6.225-10.097-14.351-10.605-22.509l2.92-0.039
							c0.462,7.423,3.705,14.815,9.65,20.481c6.397,6.096,14.636,8.965,22.602,8.613l0.275,2.919
							C286.771,238.589,277.712,235.434,270.682,228.735z"/>
						<path style="opacity:0.7;fill:#FFFFFF;" d="M260.077,206.226c-0.524-8.435,2.221-16.906,8.339-23.343
							c8.323-8.756,20.707-11.456,31.948-8.103l-0.712,2.798c-10.229-3.052-21.494-0.594-29.067,7.372
							c-5.566,5.856-8.066,13.561-7.589,21.237L260.077,206.226z"/>
					</g>
					
						<ellipse transform="matrix(0.6983 -0.7158 0.7158 0.6983 -59.0821 271.4349)" style="opacity:0.6;fill:#FFFFFF;" cx="292.475" cy="205.809" rx="24.121" ry="25.343"/>
				</g>
				<g>
					<g>
						<path style="fill:#263238;" d="M232.157,254.176l-0.486,2.008c-4.958-1.425-10.356-1.101-15.166,1.323
							c-2.827,1.424-5.153,3.425-6.921,5.795l-1.702-1.304c1.943-2.605,4.5-4.804,7.607-6.369
							C220.776,252.965,226.709,252.609,232.157,254.176z"/>
						<path style="opacity:0.5;fill:#407BFF;" d="M208.266,285.776c1.747,3.23,4.181,5.874,7.01,7.833l-1.139,1.7
							c-3.109-2.157-5.784-5.061-7.704-8.61c-4.501-8.319-3.626-17.897,1.449-24.702l1.702,1.304
							C204.967,269.492,204.171,278.207,208.266,285.776z"/>
						<path style="opacity:0.7;fill:#FFFFFF;" d="M247.083,266.219c3.06,5.656,3.635,11.893,2.096,17.445l-2.021-0.649
							c1.4-5.052,0.878-10.726-1.907-15.874c-2.996-5.538-8.009-9.353-13.58-10.958l0.486-2.008
							C238.279,255.939,243.791,260.133,247.083,266.219z"/>
						<path style="fill:#407BFF;" d="M249.179,283.665c-1.592,5.741-5.445,10.75-11.151,13.626c-7.762,3.911-16.92,2.849-23.89-1.98
							l1.139-1.7c6.342,4.396,14.673,5.36,21.735,1.802c5.191-2.616,8.698-7.172,10.146-12.396L249.179,283.665z"/>
					</g>
					
						<ellipse transform="matrix(0.6983 -0.7158 0.7158 0.6983 -129.477 245.7112)" style="opacity:0.6;fill:#FFFFFF;" cx="226.759" cy="276.46" rx="17.269" ry="18.143"/>
				</g>
				<g>
					<polygon style="fill:#FFFFFF;" points="257.005,127.751 253.042,127.751 243.085,142.589 254.508,157.426 258.471,157.426 
						247.048,142.589 					"/>
					<polygon style="fill:#FFFFFF;" points="268.849,127.751 272.811,127.751 284.235,142.589 274.278,157.426 270.315,157.426 
						280.272,142.589 					"/>
				</g>
			</g>
		</g>
		<g style="opacity:0.6;">
			<path style="fill:#407BFF;" d="M167.804,141.18h-25.293c-1.039,0-1.844,0.854-1.793,1.886l0.86,17.398
				c0.051,1.039,0.94,1.886,1.979,1.886h25.293c1.039,0,1.844-0.847,1.793-1.886l-0.86-17.398
				C169.732,142.034,168.843,141.18,167.804,141.18z M158.247,157.361h-4.579l0.322-5.532c-0.895-0.563-1.465-1.522-1.517-2.568
				c-0.084-1.701,1.231-3.084,2.932-3.084c1.694,0,3.145,1.383,3.23,3.084c0.052,1.046-0.424,2.005-1.263,2.568L158.247,157.361z"/>
			<path style="opacity:0.2;" d="M152.473,149.261c0.052,1.046,0.622,2.005,1.517,2.568l-0.322,5.532h2.29l0.247,4.99h-12.646
				c-1.039,0-1.928-0.847-1.979-1.886l-0.86-17.398c-0.051-1.032,0.754-1.886,1.793-1.886h12.646l0.247,4.996
				C153.704,146.177,152.389,147.56,152.473,149.261z"/>
			<path style="fill:#407BFF;" d="M165.484,139.932L165.484,139.932c-0.924,0-1.71-0.749-1.756-1.673l-0.084-1.703
				c-0.232-4.688-4.026-8.727-8.72-8.958c-5.017-0.247-8.97,3.754-8.726,8.706l0.097,1.956c0.046,0.924-0.667,1.673-1.591,1.673l0,0
				c-0.924,0-1.711-0.749-1.756-1.673l-0.082-1.66c-0.323-6.533,4.472-12.104,10.988-12.351c6.85-0.259,12.788,5.248,13.124,12.055
				l0.097,1.956C167.121,139.183,166.408,139.932,165.484,139.932z"/>
		</g>
		<g>
			<g>
				<polygon style="opacity:0.4;fill:#407BFF;" points="176.524,326.265 93.93,326.265 86.807,182.086 169.401,182.086 				"/>
				<polygon style="opacity:0.3;fill:#407BFF;" points="169.742,188.998 87.148,188.998 86.807,182.086 169.401,182.086 				"/>
				<polygon style="opacity:0.3;fill:#407BFF;" points="176.524,326.265 93.93,326.265 93.589,319.353 176.183,319.353 				"/>
			</g>
			<g>
				<path style="fill:#407BFF;" d="M112.446,222.885l-2.966-1.536c-0.454-1.294-1.033-2.535-1.717-3.708c0,0,0,0,0,0l0.802-3.127
					l-6.486-6.18l-3.082,0.957c0,0,0,0,0,0c-1.202-0.633-2.468-1.147-3.782-1.537c0,0-0.001,0-0.001,0l-1.677-2.887h-8.741
					l-1.392,2.888c-1.275,0.387-2.489,0.904-3.632,1.537c0,0,0,0,0,0l-3.176-0.957l-5.875,6.18l1.111,3.126c0,0,0,0.001-0.001,0.001
					c-0.568,1.173-1.024,2.413-1.351,3.708l-2.814,1.536l0.432,8.741l2.965,1.536c0,0,0,0.001,0,0.001
					c0.454,1.295,1.033,2.536,1.717,3.706c0,0.001,0.001,0.001,0.001,0.001l-0.802,3.127l6.486,6.18l3.083-0.957
					c1.204,0.632,2.469,1.148,3.782,1.535l1.678,2.89h8.741l1.393-2.888l0-0.001c1.275-0.39,2.49-0.904,3.63-1.537l3.178,0.958
					l5.875-6.18l-1.111-3.128c0,0,0,0,0-0.001c0.568-1.171,1.025-2.412,1.351-3.706c0,0,0-0.001,0-0.001l2.814-1.536
					L112.446,222.885z M91.054,243.1c-8.75,0-16.193-7.093-16.626-15.843c-0.433-8.753,6.31-15.847,15.06-15.847
					c8.75,0,16.197,7.093,16.63,15.847C106.551,236.007,99.804,243.1,91.054,243.1z"/>
				<path style="opacity:0.6;fill:#FFFFFF;" d="M89.599,213.628c-7.514,0-13.325,6.113-12.954,13.627
					c0.371,7.514,6.786,13.627,14.301,13.627c7.514,0,13.325-6.113,12.954-13.627C103.529,219.742,97.113,213.628,89.599,213.628z"
					/>
			</g>
			<path style="fill:#407BFF;" d="M177.383,236.404h-46.891c-1.975,0-3.497,1.601-3.4,3.576l1.189,24.072
				c0.098,1.975,1.778,3.576,3.753,3.576h28.188l0.516,10.437l9.921-10.437h8.266c1.975,0,3.497-1.601,3.4-3.576l-1.189-24.072
				C181.039,238.005,179.359,236.404,177.383,236.404z"/>
			<path style="fill:#FFFFFF;" d="M114.069,276.462h32.035c1.35,0,2.497,1.094,2.564,2.443l0.813,16.446
				c0.067,1.349-0.973,2.443-2.323,2.443h-19.258l0.352,7.13l-7.482-7.13h-5.647c-1.349,0-2.497-1.094-2.564-2.443l-0.813-16.446
				C111.68,277.556,112.72,276.462,114.069,276.462z"/>
		</g>
	</g>
</g>
<g id="Character_1_">
	<g>
		<g>
			<path style="fill:#FF8B7B;" d="M391.183,217.684l-4.73-0.215l2.137,8.979c0,0,2.641-1.747,4.585-4.045
				c0.812-0.96,0.711-2.392-0.241-3.212L391.183,217.684z"/>
			<polygon style="fill:#FF8B7B;" points="380.961,222.316 383.085,229.645 388.59,226.447 386.453,217.469 			"/>
		</g>
		<path style="fill:#FF8B7B;" d="M355.274,171.807l-2.285,2.625c-0.775,0.901-1.54,1.817-2.289,2.744
			c-1.499,1.855-2.983,3.717-4.382,5.623c-2.833,3.787-5.401,7.716-7.399,11.691c-0.245,0.496-0.451,0.992-0.681,1.488l-0.333,0.73
			c0.003-0.026-0.02-0.052-0.032-0.025c-0.087,0.059-0.126,0.707,0.052,1.49c0.361,1.609,1.32,3.648,2.432,5.594
			c2.266,3.926,5.196,7.92,8.124,11.691l-3.774,4.023c-4.22-3.159-8.003-6.596-11.431-10.851c-1.682-2.164-3.315-4.45-4.483-7.596
			c-0.552-1.584-1.066-3.456-0.769-5.872c0.069-0.592,0.218-1.219,0.416-1.836l0.358-1.005c0.241-0.656,0.469-1.329,0.726-1.972
			c2.101-5.113,4.808-9.695,7.779-13.999c1.495-2.148,3.038-4.246,4.688-6.251c0.819-1.008,1.653-2.003,2.504-2.988
			c0.859-1.005,1.695-1.92,2.687-2.952L355.274,171.807z"/>
		<polygon style="fill:#FF8B7B;" points="354.536,218.625 350.27,227.051 346.103,223.466 349.523,217.469 		"/>
		<path style="fill:#FF8B7B;" d="M396.383,163.73c2.623,4.648,5.076,9.323,7.429,14.091c2.356,4.762,4.599,9.587,6.697,14.539
			l0.169,0.429l0.193,0.554c0.119,0.37,0.242,0.759,0.281,1.092c0.056,0.346,0.101,0.695,0.136,1.042
			c0.038,0.353,0.013,0.628,0.013,0.946c-0.001,0.645-0.082,1.178-0.173,1.707c-0.078,0.563-0.228,0.986-0.354,1.469
			c-0.558,1.819-1.304,3.247-2.076,4.587c-0.773,1.335-1.611,2.54-2.484,3.679c-0.87,1.142-1.755,2.237-2.677,3.279
			c-3.692,4.178-7.649,7.794-11.964,11.179l-3.819-3.98c3.194-3.997,6.375-8.163,9.136-12.312c1.379-2.064,2.64-4.199,3.553-6.199
			c0.449-0.988,0.8-1.975,0.919-2.703c0.012-0.16,0.071-0.367,0.049-0.462c0.005-0.123,0.015-0.242-0.015-0.258
			c-0.012-0.01,0.007-0.067-0.012-0.039c-0.015,0.022-0.019,0.045-0.013,0.066c0.015,0.001,0,0.086,0.015,0.145
			c0.006,0.03,0.016,0.06,0.03,0.088c0.013,0.028,0.048,0.083-0.013-0.029c-2.398-4.575-4.906-9.152-7.388-13.747
			c-2.497-4.581-4.983-9.212-7.4-13.813L396.383,163.73z"/>
		<path style="fill:#263238;" d="M358.555,135.316c0.123,0.58-0.082,1.127-0.457,1.222c-0.376,0.095-0.78-0.298-0.903-0.879
			c-0.123-0.58,0.082-1.127,0.457-1.222C358.028,134.343,358.432,134.736,358.555,135.316z"/>
		<path style="fill:#FF5652;" d="M358.526,136.43c0,0-0.597,3.677-1.693,5.655c1.219,0.701,2.855-0.173,2.855-0.173L358.526,136.43z
			"/>
		<path style="fill:#263238;" d="M357.908,140.914c-0.759,0-1.497-0.592-2.088-1.682c-0.585-1.079-0.97-2.536-1.083-4.103
			c-0.113-1.567,0.057-3.065,0.481-4.217c0.447-1.217,1.132-1.919,1.929-1.977c0.792-0.057,1.576,0.538,2.194,1.678
			c0.585,1.079,0.97,2.536,1.083,4.103c0.243,3.357-0.815,6.078-2.41,6.193C357.978,140.913,357.943,140.914,357.908,140.914z
			 M357.249,129.432c-0.022,0-0.044,0.001-0.066,0.003c-0.58,0.042-1.126,0.644-1.496,1.65c-0.399,1.087-0.56,2.51-0.451,4.008
			c0.108,1.498,0.472,2.883,1.024,3.901c0.512,0.943,1.143,1.463,1.718,1.417c1.271-0.092,2.163-2.683,1.947-5.658
			c-0.108-1.498-0.472-2.883-1.024-3.901C358.409,129.944,357.81,129.432,357.249,129.432z"/>
		<path style="fill:#263238;" d="M357.02,131.794c0.068,0,0.137-0.02,0.197-0.061c0.044-0.031,1.098-0.736,2.488-0.164
			c0.176,0.073,0.381-0.011,0.454-0.189c0.073-0.178-0.012-0.381-0.189-0.454c-1.753-0.721-3.095,0.197-3.151,0.237
			c-0.157,0.11-0.195,0.326-0.086,0.483C356.801,131.742,356.909,131.794,357.02,131.794z"/>
		<path style="fill:#FF8B7B;" d="M378.524,139.393c-0.195,6.044-2.438,13.353,1.184,16.939c0,0-1.68,5.452-11.666,5.452
			c-10.981,0-5.037-5.451-5.037-5.451c6.048-1.431,6.065-5.878,5.183-10.053L378.524,139.393z"/>
		<path style="fill:#263238;" d="M382.283,158.204c0.854-1.726,1.732-4.377-0.036-4.996c-1.946-0.68-11.847-2.403-19.372-0.014
			c1.358,2.775,0.099,5.371,0.099,5.371L382.283,158.204z"/>
		<path style="fill:#FFFFFF;" d="M395.46,409.113c-0.753,0-1.479-0.115-1.751-0.483c-0.116-0.157-0.205-0.428,0.032-0.831
			c0.126-0.214,0.32-0.35,0.577-0.406c1.074-0.232,3.04,1.144,3.123,1.203c0.056,0.04,0.083,0.108,0.07,0.175
			c-0.013,0.067-0.064,0.12-0.13,0.136C397.001,408.997,396.217,409.113,395.46,409.113z M394.591,407.713
			c-0.071,0-0.138,0.006-0.201,0.02c-0.16,0.034-0.274,0.113-0.35,0.242c-0.17,0.289-0.081,0.409-0.052,0.448
			c0.302,0.408,1.804,0.413,2.906,0.227C396.278,408.261,395.258,407.713,394.591,407.713z"/>
		<path style="fill:#FFFFFF;" d="M397.34,408.911c-0.029,0-0.058-0.007-0.084-0.022c-0.73-0.406-2.134-2.003-1.974-2.826
			c0.03-0.153,0.144-0.418,0.569-0.47c0.276-0.034,0.522,0.043,0.739,0.228c0.826,0.702,0.92,2.82,0.923,2.909
			c0.002,0.063-0.029,0.122-0.082,0.155C397.403,408.902,397.372,408.911,397.34,408.911z M395.972,405.933
			c-0.026,0-0.052,0.002-0.079,0.005c-0.238,0.029-0.26,0.143-0.27,0.191c-0.095,0.487,0.793,1.697,1.516,2.262
			c-0.061-0.614-0.245-1.856-0.775-2.306C396.244,405.983,396.115,405.933,395.972,405.933z"/>
		<path style="fill:#FFFFFF;" d="M351.346,409.113c-0.941,0-1.848-0.129-2.142-0.551c-0.104-0.15-0.183-0.405,0.038-0.767
			c0.785-1.292,4.047,0.574,4.417,0.791c0.062,0.037,0.095,0.108,0.083,0.179c-0.012,0.071-0.067,0.128-0.138,0.142
			C353.133,409.001,352.224,409.113,351.346,409.113z M350.216,407.691c-0.31,0-0.553,0.082-0.678,0.286
			c-0.148,0.244-0.076,0.347-0.049,0.386c0.318,0.455,2.18,0.477,3.558,0.285C352.266,408.24,351.019,407.691,350.216,407.691z"/>
		<path style="fill:#FFFFFF;" d="M353.57,408.911c-0.024,0-0.049-0.005-0.072-0.016c-0.879-0.402-2.549-1.953-2.409-2.803
			c0.033-0.201,0.175-0.45,0.664-0.5c0.358-0.037,0.683,0.066,0.961,0.304c0.904,0.772,1.025,2.748,1.03,2.831
			c0.003,0.061-0.025,0.119-0.076,0.153C353.639,408.901,353.604,408.911,353.57,408.911z M351.893,405.933
			c-0.035,0-0.069,0.002-0.105,0.005c-0.326,0.033-0.348,0.167-0.355,0.21c-0.085,0.514,1.048,1.743,1.932,2.281
			c-0.07-0.572-0.284-1.763-0.877-2.27C352.309,406.008,352.113,405.933,351.893,405.933z"/>
		<polygon style="fill:#FF8B7B;" points="361.648,408.737 354.302,408.737 354.227,391.724 361.573,391.724 		"/>
		<polygon style="fill:#FF8B7B;" points="405.757,408.737 398.41,408.737 395.375,391.724 402.721,391.724 		"/>
		<path style="fill:#263238;" d="M397.921,407.886h8.253c0.3,0,0.552,0.209,0.606,0.502l1.199,6.53
			c0.124,0.677-0.433,1.318-1.126,1.306c-2.879-0.049-4.273-0.218-7.902-0.218c-2.233,0-6.842,0.232-9.926,0.232
			c-3.016,0-3.369-3.049-2.095-3.325c5.708-1.238,7.906-2.946,9.781-4.575C397.049,408.044,397.482,407.886,397.921,407.886z"/>
		<path style="fill:#263238;" d="M354.383,407.886h8.023c0.3,0,0.552,0.209,0.606,0.502l1.199,6.53
			c0.124,0.677-0.414,1.319-1.107,1.307c-2.892-0.049-7.067-0.219-10.705-0.219c-4.253,0-7.935,0.232-12.923,0.232
			c-3.016,0-3.735-3.049-2.462-3.325c5.796-1.257,10.493-1.392,15.578-4.454C353.144,408.126,353.749,407.886,354.383,407.886z"/>
		<g>
			<path style="fill:#407BFF;" d="M393.725,157.994c6.824,1.579,13.996,20.351,13.996,20.351l-14.195,9.478
				c0,0-4.956-7.329-8.534-15.529C381.243,163.702,386.747,156.38,393.725,157.994z"/>
			<path style="opacity:0.3;fill:#FAFAFA;" d="M393.725,157.994c6.824,1.579,13.996,20.351,13.996,20.351l-14.195,9.478
				c0,0-4.956-7.329-8.534-15.529C381.243,163.702,386.747,156.38,393.725,157.994z"/>
		</g>
		<path style="opacity:0.2;" d="M388.329,169.964l5.868,17.409l-0.667,0.45c0,0-2.677-3.97-5.53-9.33L388.329,169.964z"/>
		<g>
			<path style="fill:#407BFF;" d="M347.894,190.81c0.053,8.2,0.55,18.4,1.771,31.06h39.3c0.503-6.03-2.151-35.46,4.756-63.88
				c0,0-6.678-1.35-13.086-1.66c-5.011-0.24-12.275-0.4-16.7,0c-5.84,0.53-11.379,2.04-11.379,2.04s-3.361,3.64-4.38,20.71
				C347.977,182.45,347.867,186.33,347.894,190.81z"/>
			<path style="opacity:0.3;fill:#FAFAFA;" d="M347.894,190.81c0.053,8.2,0.55,18.4,1.771,31.06h39.3
				c0.503-6.03-2.151-35.46,4.756-63.88c0,0-6.678-1.35-13.086-1.66c-5.011-0.24-12.275-0.4-16.7,0
				c-5.84,0.53-11.379,2.04-11.379,2.04s-3.361,3.64-4.38,20.71C347.977,182.45,347.867,186.33,347.894,190.81z"/>
		</g>
		<path style="opacity:0.2;" d="M347.894,190.81c2.378-4.34,6.694-13.05,6.086-18.01l-5.803,6.28
			C347.977,182.45,347.867,186.33,347.894,190.81z"/>
		<g>
			<path style="fill:#407BFF;" d="M360.264,165.017c0.621,6.967-15.25,23.838-15.25,23.838l-12.721-10.361
				c0,0,5.23-9.065,11.89-15.504C351.619,155.798,359.565,157.169,360.264,165.017z"/>
			<path style="opacity:0.3;fill:#FAFAFA;" d="M360.264,165.017c0.621,6.967-15.25,23.838-15.25,23.838l-12.721-10.361
				c0,0,5.23-9.065,11.89-15.504C351.619,155.798,359.565,157.169,360.264,165.017z"/>
		</g>
		<g>
			<polygon style="opacity:0.2;" points="354.228,391.729 354.266,400.498 361.615,400.498 361.578,391.729 			"/>
			<polygon style="opacity:0.2;" points="402.723,391.729 395.374,391.729 396.942,400.498 404.292,400.498 			"/>
		</g>
		<path style="fill:#FF8B7B;" d="M377.456,129.247c1.076,7.234,2.069,11.4-0.719,15.956c-4.195,6.854-13.595,5.791-16.786-0.895
			c-2.872-6.019-4.149-16.837,2.157-21.417C368.32,118.38,376.38,122.013,377.456,129.247z"/>
		<path style="fill:#263238;" d="M365.17,127.266c-23.111-0.556-4.202-14.544-4.202-14.544c-3.794,6.667,7.096,6.056,9.837,3.056
			c3.348-3.664,9.385,1.444,8.902,5.444c3.517-0.444,6.316,2.167,4.983,10.572c-1.333,8.405-4.056,10.762-5.5,12.817
			c-1.444,2.056-1.319,0.097-6.117,0.992c-3.299,0.616-8.837-6.503-9.438-10.659C362.968,130.333,365.17,127.266,365.17,127.266z"/>
		<path style="fill:#263238;" d="M377.061,122.444c0,0,6.032-2.5,1.962-8.778C384.616,116.556,383.783,121.833,377.061,122.444z"/>
		<path style="fill:#FF8B7B;" d="M368.374,133.723c-0.004,1.926-0.778,3.811-1.765,5.088c-1.485,1.921-3.201,0.972-3.605-1.161
			c-0.363-1.92-0.029-5.234,1.854-6.393C366.713,130.115,368.378,131.521,368.374,133.723z"/>
		<path style="fill:#263238;" d="M363.606,221.87c0,0,6.17,56.142,9.934,77.175c4.123,23.033,20.043,99.755,20.043,99.755h13.455
			c0,0-9.561-74.863-11.54-97.667c-2.148-24.75-6.538-79.263-6.538-79.263H363.606z"/>
		<g>
			<path style="fill:#407BFF;" d="M391.626,393.843c-0.057,0,1.19,5.167,1.19,5.167h15.138l-0.1-4.611L391.626,393.843z"/>
		</g>
		<path style="opacity:0.2;" d="M368.103,241.873c9.567,1.89,7.159,37.84,5.285,56.33c-2.275-13.07-5.374-38.22-7.465-56.07
			C366.575,241.813,367.299,241.713,368.103,241.873z"/>
		<path style="fill:#263238;" d="M349.667,221.87c0,0-3.132,54.927-3.198,77.33c-0.069,23.302,5.125,99.601,5.125,99.601h12.445
			c0,0,3.35-74.937,4.787-97.822c1.567-24.949,6.67-79.108,6.67-79.108H349.667z"/>
		<path style="fill:#FF8B7B;" d="M346.66,214.815l3.491,0.282c1.213,0.098,2.028,1.288,1.68,2.454l-1.444,4.847
			c-0.516,1.732-2.628,2.415-4.036,1.281c-1.385-1.117-3.17-3.813-3.735-6.211L346.66,214.815z"/>
		<path style="opacity:0.2;fill:#FAFAFA;" d="M354.536,389.861c-0.065,0-0.121-0.051-0.125-0.117
			c-1.378-21.117-4.578-72.213-4.524-90.545c0.055-18.751,2.282-60.7,2.963-73.111c0.004-0.069,0.059-0.124,0.132-0.118
			c0.069,0.004,0.122,0.063,0.118,0.132c-0.681,12.409-2.908,54.353-2.963,73.098c-0.054,18.324,3.145,69.413,4.523,90.528
			c0.005,0.069-0.047,0.128-0.116,0.133C354.541,389.861,354.538,389.861,354.536,389.861z"/>
		<g>
			<path style="fill:#407BFF;" d="M349.39,393.843c-0.057,0,0.503,5.167,0.503,5.167h15.139l0.587-4.611L349.39,393.843z"/>
		</g>
	</g>
</g>
</svg>
