<svg id="visual" viewBox="0 0 900 600" width="900" height="600" xmlns="http://www.w3.org/2000/svg" xmlns:xlink="http://www.w3.org/1999/xlink" version="1.1"><rect x="0" y="0" width="900" height="600" fill="#ffffff"></rect><path d="M0 334L8.3 329.5C16.7 325 33.3 316 50 300C66.7 284 83.3 261 100 274.5C116.7 288 133.3 338 150 342.5C166.7 347 183.3 306 200 301.7C216.7 297.3 233.3 329.7 250 325.3C266.7 321 283.3 280 300 256.2C316.7 232.3 333.3 225.7 350 226.2C366.7 226.7 383.3 234.3 400 246.8C416.7 259.3 433.3 276.7 450 273.7C466.7 270.7 483.3 247.3 500 234.7C516.7 222 533.3 220 550 234.8C566.7 249.7 583.3 281.3 600 280.8C616.7 280.3 633.3 247.7 650 248.3C666.7 249 683.3 283 700 293.3C716.7 303.7 733.3 290.3 750 300.8C766.7 311.3 783.3 345.7 800 335.7C816.7 325.7 833.3 271.3 850 261.8C866.7 252.3 883.3 287.7 891.7 305.3L900 323L900 601L891.7 601C883.3 601 866.7 601 850 601C833.3 601 816.7 601 800 601C783.3 601 766.7 601 750 601C733.3 601 716.7 601 700 601C683.3 601 666.7 601 650 601C633.3 601 616.7 601 600 601C583.3 601 566.7 601 550 601C533.3 601 516.7 601 500 601C483.3 601 466.7 601 450 601C433.3 601 416.7 601 400 601C383.3 601 366.7 601 350 601C333.3 601 316.7 601 300 601C283.3 601 266.7 601 250 601C233.3 601 216.7 601 200 601C183.3 601 166.7 601 150 601C133.3 601 116.7 601 100 601C83.3 601 66.7 601 50 601C33.3 601 16.7 601 8.3 601L0 601Z" fill="#0b488d" stroke-linecap="round" stroke-linejoin="miter"></path></svg>