<?xml version="1.0" standalone="no"?>
<!DOCTYPE svg PUBLIC "-//W3C//DTD SVG 20010904//EN"
 "http://www.w3.org/TR/2001/REC-SVG-20010904/DTD/svg10.dtd">
<svg version="1.0" xmlns="http://www.w3.org/2000/svg"
 width="128.000000pt" height="128.000000pt" viewBox="0 0 128.000000 128.000000"
 preserveAspectRatio="xMidYMid meet">

<g transform="translate(0.000000,128.000000) scale(0.100000,-0.100000)"
fill="#000000" stroke="none">
<path d="M469 1267 c-81 -30 -129 -85 -148 -166 -8 -37 -6 -52 12 -93 11 -26
27 -48 34 -48 10 0 13 -25 13 -102 0 -124 16 -165 86 -232 l48 -46 -50 0
c-101 0 -210 -76 -258 -179 -18 -40 -21 -65 -21 -198 0 -145 1 -153 23 -175
l23 -23 409 0 409 0 23 23 c22 22 23 30 23 175 0 133 -3 158 -21 198 -48 103
-157 179 -258 179 l-50 0 48 46 c70 67 86 108 86 232 0 77 3 102 13 102 7 0
23 23 34 50 20 46 20 55 9 100 -16 62 -56 114 -109 142 -37 20 -59 23 -192 25
-106 2 -161 -1 -186 -10z m114 -95 c-16 -12 -23 -30 -26 -67 l-3 -50 -2 52
c-2 43 2 54 20 67 30 21 38 20 11 -2z m143 -63 l1 -54 -4 50 c-3 36 -10 55
-26 69 l-22 18 25 -14 c21 -13 25 -23 26 -69z m-131 -119 l39 -20 -131 0 c-97
0 -133 3 -142 13 -18 23 -2 27 99 27 76 0 104 -4 135 -20z m328 13 c4 -3 2
-12 -4 -20 -9 -10 -45 -13 -143 -13 l-131 0 35 19 c27 14 58 19 136 20 55 0
104 -2 107 -6z m-270 -10 c-7 -2 -19 -2 -25 0 -7 3 -2 5 12 5 14 0 19 -2 13
-5z m-181 -113 c29 0 36 -3 32 -15 -4 -8 -3 -26 0 -39 14 -57 94 -32 82 26
l-5 28 59 0 60 0 -6 -28 c-12 -58 68 -83 82 -26 3 13 4 31 0 39 -4 12 3 15 32
15 21 0 48 7 60 16 l22 15 0 -63 c0 -83 -14 -128 -53 -180 -39 -51 -61 -55
-65 -13 -7 82 -36 105 -132 105 -96 0 -125 -23 -132 -105 -4 -42 -26 -38 -65
13 -39 52 -53 97 -53 180 l0 63 22 -15 c12 -9 39 -16 60 -16z m186 -207 c-10
-2 -26 -2 -35 0 -10 3 -2 5 17 5 19 0 27 -2 18 -5z m92 -138 c0 -27 -41 -74
-74 -85 -49 -16 -101 2 -127 44 -10 17 -19 36 -19 41 0 6 43 10 110 10 67 0
110 -4 110 -10z"/>
</g>
</svg>
